<svg width="484" height="705" viewBox="0 0 484 705" fill="none" xmlns="http://www.w3.org/2000/svg">
<g clip-path="url(#clip0_688_3)">
<path d="M157.899 225.849L126.006 108.465C126.006 108.465 166.529 68.4113 220.021 83.9948L251.51 200.766L157.899 225.849Z" fill="#E22020"/>
<path d="M254.788 288.71L289.033 230.15L281.625 202.504L132.533 242.453L139.941 270.099L198.878 303.691L254.788 288.71Z" fill="#E9E957"/>
<path d="M174.189 211.538L230.099 196.557L254.791 288.709L198.882 303.69L174.189 211.538Z" fill="#FFFCB0"/>
<path d="M254.789 288.709L339.77 344.953L386.685 520.042C400.323 570.938 369.66 623.372 318.195 637.162C266.731 650.952 213.958 620.874 200.321 569.978L153.406 394.89L198.88 303.69L254.789 288.709Z" fill="#F1F154"/>
<path d="M318.195 637.162C266.731 650.952 213.958 620.874 200.321 569.978L153.406 394.89L198.88 303.69L254.789 288.709L302.498 354.941L349.412 530.029C363.05 580.925 349.076 628.888 318.195 637.162Z" fill="#FFFCB0"/>
<path d="M339.77 344.953L386.685 520.042C400.323 570.938 369.66 623.372 318.195 637.162C266.731 650.952 213.958 620.874 200.321 569.978L153.406 394.89M339.77 344.953L153.406 394.89M339.77 344.953L254.789 288.71M153.406 394.89L198.88 303.69M254.789 288.71L230.097 196.558L174.188 211.538L198.88 303.69M254.789 288.71L198.88 303.69M254.789 288.71L289.034 230.149L281.627 202.504L237.551 214.314M198.88 303.69L139.943 270.098L132.535 242.453L178.865 230.039M189.796 157.972L165.104 65.82M114.133 99.2312L141.295 200.598M225.952 69.2695L253.113 170.637" stroke="#FD7E14" stroke-width="1.13349" stroke-linecap="round" stroke-linejoin="round"/>
<path d="M290.223 495.27C290.721 497.128 290.452 499.109 289.476 500.778C288.5 502.448 286.896 503.668 285.018 504.171C283.14 504.675 281.141 504.42 279.461 503.462C277.781 502.504 276.557 500.923 276.06 499.066C275.562 497.208 275.831 495.227 276.807 493.557C277.783 491.888 279.387 490.668 281.265 490.164C283.143 489.661 285.142 489.916 286.822 490.874C288.502 491.831 289.726 493.413 290.223 495.27ZM254.814 504.758C252.133 494.751 255.058 484.05 262.476 476.699L241.811 456.231C234.516 463.457 229.259 472.447 226.569 482.298C223.878 492.149 223.85 502.513 226.487 512.349L254.814 504.758ZM303.816 517.634C296.386 524.978 285.586 527.872 275.479 525.227L267.817 553.285C277.749 555.887 288.212 555.853 298.157 553.189C308.102 550.524 317.18 545.321 324.481 538.102L303.816 517.634ZM290.813 469.107C295.779 470.412 300.303 472.99 303.93 476.583C307.558 480.176 310.161 484.657 311.478 489.575L339.806 481.985C337.171 472.149 331.964 463.187 324.709 456.001C317.454 448.815 308.407 443.658 298.475 441.048L290.813 469.107Z" fill="black" stroke="black" stroke-width="0.566744" stroke-linecap="round" stroke-linejoin="round"/>
</g>
<defs>
<clipPath id="clip0_688_3">
<rect width="327.753" height="641.485" fill="white" transform="translate(0.52124 85.3369) rotate(-15)"/>
</clipPath>
</defs>
</svg>
