<svg width="37" height="36" viewBox="0 0 37 36" fill="none" xmlns="http://www.w3.org/2000/svg">
<g id="github">
<path id="Vector" d="M23 33V27C23.2087 25.1209 22.6699 23.2352 21.5 21.75C26 21.75 30.5 18.75 30.5 13.5C30.62 11.625 30.095 9.78 29 8.25C29.42 6.525 29.42 4.725 29 3C29 3 27.5 3 24.5 5.25C20.54 4.5 16.46 4.5 12.5 5.25C9.49999 3 7.99999 3 7.99999 3C7.54999 4.725 7.54999 6.525 7.99999 8.25C6.9078 9.77383 6.3777 11.6292 6.49999 13.5C6.49999 18.75 11 21.75 15.5 21.75C14.915 22.485 14.48 23.325 14.225 24.225C13.97 25.125 13.895 26.07 14 27V33" stroke="#FCF7F3" stroke-width="2" stroke-linecap="round" stroke-linejoin="round"/>
<path id="Vector_2" d="M14 27C7.235 30 6.5 24 3.5 24" stroke="#FCF7F3" stroke-width="2" stroke-linecap="round" stroke-linejoin="round"/>
</g>
</svg>
