<svg width="37" height="36" viewBox="0 0 37 36" fill="none" xmlns="http://www.w3.org/2000/svg">
<g id="instagram">
<path id="Vector" d="M26 3H11C6.85786 3 3.5 6.35786 3.5 10.5V25.5C3.5 29.6421 6.85786 33 11 33H26C30.1421 33 33.5 29.6421 33.5 25.5V10.5C33.5 6.35786 30.1421 3 26 3Z" stroke="#FCF7F3" stroke-width="2" stroke-linecap="round" stroke-linejoin="round"/>
<path id="Vector_2" d="M24.5 17.055C24.6852 18.3033 24.4719 19.5783 23.8907 20.6985C23.3094 21.8187 22.3898 22.7271 21.2625 23.2945C20.1352 23.8619 18.8577 24.0594 17.6117 23.8589C16.3657 23.6584 15.2147 23.0701 14.3223 22.1777C13.4299 21.2853 12.8416 20.1343 12.6412 18.8883C12.4407 17.6423 12.6381 16.3648 13.2055 15.2375C13.7729 14.1102 14.6813 13.1906 15.8015 12.6093C16.9217 12.0281 18.1967 11.8148 19.445 12C20.7184 12.1888 21.8973 12.7822 22.8076 13.6924C23.7179 14.6027 24.3112 15.7816 24.5 17.055Z" stroke="#FCF7F3" stroke-width="2" stroke-linecap="round" stroke-linejoin="round"/>
<path id="Vector_3" d="M26.75 9.75H26.765" stroke="#FCF7F3" stroke-width="2" stroke-linecap="round" stroke-linejoin="round"/>
</g>
</svg>
